<?xml version="1.0" standalone="no"?>
<svg xmlns:xlink="http://www.w3.org/1999/xlink" id="wave" style="transform:rotate(0deg); transition: 0.3s" viewBox="0 0 1440 490" version="1.1" xmlns="http://www.w3.org/2000/svg"><defs><linearGradient id="sw-gradient-0" x1="0" x2="0" y1="1" y2="0"><stop stop-color="rgba(247, 148, 29, 1)" offset="0%"/><stop stop-color="rgba(0.579, 77.723, 182.463, 1)" offset="100%"/></linearGradient></defs><path style="transform:translate(0, 0px); opacity:1" fill="url(#sw-gradient-0)" d="M0,98L120,106.2C240,114,480,131,720,187.8C960,245,1200,343,1440,318.5C1680,294,1920,147,2160,98C2400,49,2640,98,2880,163.3C3120,229,3360,310,3600,285.8C3840,261,4080,131,4320,65.3C4560,0,4800,0,5040,8.2C5280,16,5520,33,5760,32.7C6000,33,6240,16,6480,32.7C6720,49,6960,98,7200,155.2C7440,212,7680,278,7920,326.7C8160,376,8400,408,8640,359.3C8880,310,9120,180,9360,106.2C9600,33,9840,16,10080,16.3C10320,16,10560,33,10800,65.3C11040,98,11280,147,11520,163.3C11760,180,12000,163,12240,171.5C12480,180,12720,212,12960,196C13200,180,13440,114,13680,89.8C13920,65,14160,82,14400,147C14640,212,14880,327,15120,318.5C15360,310,15600,180,15840,171.5C16080,163,16320,278,16560,318.5C16800,359,17040,327,17160,310.3L17280,294L17280,490L17160,490C17040,490,16800,490,16560,490C16320,490,16080,490,15840,490C15600,490,15360,490,15120,490C14880,490,14640,490,14400,490C14160,490,13920,490,13680,490C13440,490,13200,490,12960,490C12720,490,12480,490,12240,490C12000,490,11760,490,11520,490C11280,490,11040,490,10800,490C10560,490,10320,490,10080,490C9840,490,9600,490,9360,490C9120,490,8880,490,8640,490C8400,490,8160,490,7920,490C7680,490,7440,490,7200,490C6960,490,6720,490,6480,490C6240,490,6000,490,5760,490C5520,490,5280,490,5040,490C4800,490,4560,490,4320,490C4080,490,3840,490,3600,490C3360,490,3120,490,2880,490C2640,490,2400,490,2160,490C1920,490,1680,490,1440,490C1200,490,960,490,720,490C480,490,240,490,120,490L0,490Z"/></svg>